<svg width="60" height="35" viewBox="0 0 60 35" fill="none" xmlns="http://www.w3.org/2000/svg">
<g filter="url(#filter0_d)">
<path d="M19.88 25.88L3 24.08H20.28L19.88 25.88ZM20.76 22L3.92 20.2H21.2L20.76 22ZM21.68 18.16L4.84 16.36H22.08L21.68 18.16ZM22.56 14.32L5.76 12.52H23L22.56 14.32ZM23.48 10.48L6.68 8.68H23.88L23.48 10.48ZM24.36 6.64L7.6 4.84H24.8L24.36 6.64ZM25.28 2.8L8.52 1H25.68L25.28 2.8ZM29 26H21.08L26.92 1H36.84L37.56 13.72H37.84L43.04 1H52.96L50 26H42.04L43.72 13.88H43.44L38.44 26H32.64L31.8 13.88H31.6L29 26Z" fill="#FF0000"/>
</g>
<defs>
<filter id="filter0_d" x="0" y="0" width="59.96" height="35" filterUnits="userSpaceOnUse" color-interpolation-filters="sRGB">
<feFlood flood-opacity="0" result="BackgroundImageFix"/>
<feColorMatrix in="SourceAlpha" type="matrix" values="0 0 0 0 0 0 0 0 0 0 0 0 0 0 0 0 0 0 127 0" result="hardAlpha"/>
<feOffset dx="2" dy="4"/>
<feGaussianBlur stdDeviation="2.5"/>
<feComposite in2="hardAlpha" operator="out"/>
<feColorMatrix type="matrix" values="0 0 0 0 0.954473 0 0 0 0 0.0404642 0 0 0 0 0.0404642 0 0 0 0.5 0"/>
<feBlend mode="normal" in2="BackgroundImageFix" result="effect1_dropShadow"/>
<feBlend mode="normal" in="SourceGraphic" in2="effect1_dropShadow" result="shape"/>
</filter>
</defs>
</svg>
